<svg width="82" height="25" viewBox="0 0 82 25" fill="none" xmlns="http://www.w3.org/2000/svg">
<path fill-rule="evenodd" clip-rule="evenodd" d="M19.9376 12.6394H14.1528L12.032 4.73627L19.9376 12.6394ZM4.1314 12.6394H9.91705L12.0379 4.73627L4.1314 12.6394ZM14.5015 16.8725L12.0345 19.3387L9.56669 16.8725L12.0336 14.4056L14.5015 16.8725ZM7.19983 19.2403L12.0353 24.0758L16.8709 19.2403L14.5031 16.8725H19.2377L24.0732 12.037L12.0362 0L1.18343 10.8528L0 12.0404L4.83551 16.8759H9.56669L7.19983 19.2403Z" fill="#524A4A"/>
<path d="M32.0161 10.4309C32.1778 10.4309 32.335 10.4133 32.4879 10.378C32.6437 10.3427 32.7789 10.2693 32.8936 10.1575C33.0112 10.0458 33.1067 9.88562 33.1802 9.6769C33.2537 9.46524 33.2904 9.18155 33.2904 8.82584C33.2904 8.47602 33.2552 8.19527 33.1846 7.98361C33.1141 7.76901 33.0215 7.60439 32.9068 7.48974C32.7951 7.37509 32.6599 7.30013 32.5011 7.26485C32.3453 7.22663 32.1836 7.20753 32.0161 7.20753H31.6016V10.4309H32.0161ZM28.2767 12.0669V10.4309C28.5354 10.4309 28.7206 10.3971 28.8323 10.3295C28.9441 10.259 28.9999 10.1281 28.9999 9.93706V7.70581C28.9999 7.51179 28.9441 7.38097 28.8323 7.31336C28.7206 7.2428 28.5354 7.20753 28.2767 7.20753V5.57157H32.9553C33.3757 5.57157 33.7829 5.62742 34.1768 5.73913C34.5707 5.85084 34.9205 6.0331 35.2263 6.28592C35.5349 6.53874 35.7819 6.87387 35.9671 7.29131C36.1552 7.70581 36.2493 8.21732 36.2493 8.82584C36.2493 9.43437 36.1567 9.94588 35.9715 10.3604C35.7892 10.7749 35.5393 11.1085 35.2218 11.3614C34.9073 11.6142 34.5384 11.7964 34.115 11.9081C33.6917 12.0199 33.2419 12.0757 32.7657 12.0757L28.2767 12.0669ZM36.6638 12.0669V10.4309C36.9225 10.4309 37.1077 10.3971 37.2194 10.3295C37.3311 10.259 37.387 10.1281 37.387 9.93706V7.70581C37.387 7.51179 37.3311 7.38097 37.2194 7.31336C37.1077 7.2428 36.9225 7.20753 36.6638 7.20753V5.57157H40.7074V7.20753C40.4487 7.20753 40.2635 7.2428 40.1518 7.31336C40.043 7.38097 39.9886 7.51179 39.9886 7.70581V9.93706C39.9886 10.1281 40.043 10.259 40.1518 10.3295C40.2635 10.3971 40.4487 10.4309 40.7074 10.4309V12.0669H36.6638ZM44.5878 9.80036H43.1944L43.1327 9.98998C43.0856 10.1164 43.0886 10.2222 43.1415 10.3075C43.1944 10.3898 43.3061 10.4309 43.4766 10.4309H43.7279V12.0669H40.9808V10.4309H41.1616C41.3732 10.4309 41.5143 10.3898 41.5849 10.3075C41.6584 10.2222 41.7289 10.0987 41.7965 9.93706L42.7005 7.70581C42.7652 7.5353 42.7755 7.41037 42.7314 7.33099C42.6902 7.24868 42.5623 7.20753 42.3477 7.20753H42.2551V5.57157H46.7882V7.20753H46.7C46.4825 7.20753 46.3517 7.25015 46.3076 7.3354C46.2664 7.42066 46.2796 7.54412 46.3472 7.70581L47.2512 9.93706C47.2865 10.0194 47.3174 10.0914 47.3438 10.1531C47.3732 10.2119 47.4085 10.2634 47.4496 10.3075C47.4908 10.3486 47.5452 10.3795 47.6128 10.4001C47.6834 10.4206 47.773 10.4309 47.8818 10.4309H48.0626V12.0669H44.0543V10.4309H44.2968C44.4643 10.4309 44.5761 10.3898 44.6319 10.3075C44.6907 10.2222 44.6966 10.1164 44.6496 9.98998L44.5878 9.80036ZM43.4193 9.11247H44.3585L43.9176 7.75872H43.8823L43.4193 9.11247ZM56.2335 5.57157V7.20753C55.9749 7.20753 55.8043 7.25015 55.722 7.3354C55.6427 7.42066 55.603 7.54412 55.603 7.70581V12.0669H52.9528L50.651 8.46426V9.98998C50.651 10.1811 50.7069 10.3031 50.8186 10.356C50.9303 10.4059 51.1155 10.4309 51.3742 10.4309V12.0669H48.3404V10.4309C48.5991 10.4309 48.7843 10.3971 48.896 10.3295C49.0077 10.259 49.0636 10.1281 49.0636 9.93706V7.70581C49.0636 7.51179 49.0077 7.38097 48.896 7.31336C48.7843 7.2428 48.5991 7.20753 48.3404 7.20753V5.57157H51.8063L54.0111 9.02428V7.70581C54.0111 7.51179 53.97 7.38097 53.8876 7.31336C53.8083 7.2428 53.6392 7.20753 53.3805 7.20753V5.57157H56.2335ZM56.551 8.82584C56.551 8.25848 56.6436 7.76166 56.8288 7.3354C57.017 6.9062 57.2816 6.54756 57.6226 6.25946C57.9636 5.97137 58.3678 5.7553 58.8352 5.61125C59.3056 5.46721 59.8244 5.39518 60.3918 5.39518C60.9562 5.39518 61.4736 5.46721 61.944 5.61125C62.4143 5.7553 62.8185 5.97137 63.1566 6.25946C63.4976 6.54756 63.7607 6.9062 63.9459 7.3354C64.1341 7.76166 64.2281 8.25848 64.2281 8.82584C64.2281 9.39027 64.1341 9.88709 63.9459 10.3163C63.7607 10.7425 63.4976 11.1012 63.1566 11.3922C62.8185 11.6803 62.4143 11.8964 61.944 12.0404C61.4736 12.1845 60.9562 12.2565 60.3918 12.2565C59.8244 12.2565 59.3056 12.1845 58.8352 12.0404C58.3678 11.8964 57.9636 11.6803 57.6226 11.3922C57.2816 11.1012 57.017 10.7425 56.8288 10.3163C56.6436 9.88709 56.551 9.39027 56.551 8.82584ZM59.5143 8.82584C59.5143 9.18155 59.5275 9.47993 59.554 9.72099C59.5804 9.95911 59.626 10.1531 59.6907 10.3031C59.7583 10.45 59.8479 10.5573 59.9597 10.625C60.0714 10.6896 60.2154 10.722 60.3918 10.722C60.5594 10.722 60.7005 10.6896 60.8151 10.625C60.9298 10.5573 61.0194 10.45 61.0841 10.3031C61.1517 10.1531 61.1987 9.95911 61.2252 9.72099C61.2517 9.47993 61.2649 9.18155 61.2649 8.82584C61.2649 8.47602 61.2517 8.1791 61.2252 7.93511C61.1987 7.69111 61.1517 7.49562 61.0841 7.34863C61.0194 7.20165 60.9298 7.09582 60.8151 7.03114C60.7005 6.96353 60.5594 6.92972 60.3918 6.92972C60.2154 6.92972 60.0714 6.96353 59.9597 7.03114C59.8479 7.09582 59.7583 7.20165 59.6907 7.34863C59.626 7.49562 59.5804 7.69111 59.554 7.93511C59.5275 8.1791 59.5143 8.47602 59.5143 8.82584ZM72.5314 5.57157V7.20753C72.2727 7.20753 72.1022 7.25015 72.0199 7.3354C71.9405 7.42066 71.9008 7.54412 71.9008 7.70581V12.0669H69.2507L66.9489 8.46426V9.98998C66.9489 10.1811 67.0047 10.3031 67.1164 10.356C67.2281 10.4059 67.4133 10.4309 67.672 10.4309V12.0669H64.6382V10.4309C64.8969 10.4309 65.0821 10.3971 65.1938 10.3295C65.3055 10.259 65.3614 10.1281 65.3614 9.93706V7.70581C65.3614 7.51179 65.3055 7.38097 65.1938 7.31336C65.0821 7.2428 64.8969 7.20753 64.6382 7.20753V5.57157H68.1042L70.309 9.02428V7.70581C70.309 7.51179 70.2678 7.38097 70.1855 7.31336C70.1061 7.2428 69.9371 7.20753 69.6784 7.20753V5.57157H72.5314ZM76.5441 10.4309C76.7058 10.4309 76.8631 10.4133 77.016 10.378C77.1718 10.3427 77.307 10.2693 77.4216 10.1575C77.5392 10.0458 77.6348 9.88562 77.7083 9.6769C77.7818 9.46524 77.8185 9.18155 77.8185 8.82584C77.8185 8.47602 77.7832 8.19527 77.7127 7.98361C77.6421 7.76901 77.5495 7.60439 77.4349 7.48974C77.3232 7.37509 77.1879 7.30013 77.0292 7.26485C76.8734 7.22663 76.7117 7.20753 76.5441 7.20753H76.1296V10.4309H76.5441ZM72.8048 12.0669V10.4309C73.0635 10.4309 73.2487 10.3971 73.3604 10.3295C73.4721 10.259 73.528 10.1281 73.528 9.93706V7.70581C73.528 7.51179 73.4721 7.38097 73.3604 7.31336C73.2487 7.2428 73.0635 7.20753 72.8048 7.20753V5.57157H77.4834C77.9038 5.57157 78.3109 5.62742 78.7048 5.73913C79.0988 5.85084 79.4486 6.0331 79.7543 6.28592C80.063 6.53874 80.3099 6.87387 80.4951 7.29131C80.6833 7.70581 80.7773 8.21732 80.7773 8.82584C80.7773 9.43437 80.6847 9.94588 80.4995 10.3604C80.3173 10.7749 80.0674 11.1085 79.7499 11.3614C79.4353 11.6142 79.0664 11.7964 78.6431 11.9081C78.2198 12.0199 77.77 12.0757 77.2938 12.0757L72.8048 12.0669ZM34.6089 21.0669V19.4309C34.8676 19.4309 35.0366 19.3971 35.116 19.3295C35.1983 19.259 35.2395 19.1281 35.2395 18.9371V16.406L33.7314 21.0669H32.0337L30.4992 16.6529V18.99C30.4992 19.087 30.508 19.1649 30.5256 19.2237C30.5433 19.2795 30.5741 19.3236 30.6182 19.356C30.6653 19.3883 30.7299 19.4089 30.8123 19.4177C30.8975 19.4265 31.0033 19.4309 31.1297 19.4309V21.0669H28.2767V19.4309C28.5354 19.4309 28.7206 19.3971 28.8323 19.3295C28.9441 19.259 28.9999 19.1281 28.9999 18.9371V16.7058C28.9999 16.5118 28.9441 16.381 28.8323 16.3134C28.7206 16.2428 28.5354 16.2075 28.2767 16.2075V14.5716H32.4747L33.4889 17.6186L34.3708 14.5716H38.5158V16.2075C38.2571 16.2075 38.0719 16.2428 37.9602 16.3134C37.8514 16.381 37.797 16.5118 37.797 16.7058V18.9371C37.797 19.1281 37.8514 19.259 37.9602 19.3295C38.0719 19.3971 38.2571 19.4309 38.5158 19.4309V21.0669H34.6089ZM38.9215 17.8258C38.9215 17.2585 39.0141 16.7617 39.1993 16.3354C39.3874 15.9062 39.652 15.5476 39.993 15.2595C40.334 14.9714 40.7382 14.7553 41.2057 14.6113C41.676 14.4672 42.1949 14.3952 42.7622 14.3952C43.3267 14.3952 43.8441 14.4672 44.3144 14.6113C44.7848 14.7553 45.189 14.9714 45.5271 15.2595C45.8681 15.5476 46.1312 15.9062 46.3164 16.3354C46.5045 16.7617 46.5986 17.2585 46.5986 17.8258C46.5986 18.3903 46.5045 18.8871 46.3164 19.3163C46.1312 19.7425 45.8681 20.1012 45.5271 20.3922C45.189 20.6803 44.7848 20.8964 44.3144 21.0404C43.8441 21.1845 43.3267 21.2565 42.7622 21.2565C42.1949 21.2565 41.676 21.1845 41.2057 21.0404C40.7382 20.8964 40.334 20.6803 39.993 20.3922C39.652 20.1012 39.3874 19.7425 39.1993 19.3163C39.0141 18.8871 38.9215 18.3903 38.9215 17.8258ZM41.8847 17.8258C41.8847 18.1816 41.898 18.4799 41.9244 18.721C41.9509 18.9591 41.9964 19.1531 42.0611 19.3031C42.1287 19.45 42.2184 19.5573 42.3301 19.625C42.4418 19.6896 42.5859 19.722 42.7622 19.722C42.9298 19.722 43.0709 19.6896 43.1856 19.625C43.3002 19.5573 43.3899 19.45 43.4546 19.3031C43.5222 19.1531 43.5692 18.9591 43.5957 18.721C43.6221 18.4799 43.6353 18.1816 43.6353 17.8258C43.6353 17.476 43.6221 17.1791 43.5957 16.9351C43.5692 16.6911 43.5222 16.4956 43.4546 16.3486C43.3899 16.2016 43.3002 16.0958 43.1856 16.0311C43.0709 15.9635 42.9298 15.9297 42.7622 15.9297C42.5859 15.9297 42.4418 15.9635 42.3301 16.0311C42.2184 16.0958 42.1287 16.2016 42.0611 16.3486C41.9964 16.4956 41.9509 16.6911 41.9244 16.9351C41.898 17.1791 41.8847 17.476 41.8847 17.8258ZM54.9019 14.5716V16.2075C54.6432 16.2075 54.4727 16.2502 54.3903 16.3354C54.311 16.4207 54.2713 16.5441 54.2713 16.7058V21.0669H51.6211L49.3193 17.4643V18.99C49.3193 19.1811 49.3752 19.3031 49.4869 19.356C49.5986 19.4059 49.7838 19.4309 50.0425 19.4309V21.0669H47.0087V19.4309C47.2674 19.4309 47.4526 19.3971 47.5643 19.3295C47.676 19.259 47.7319 19.1281 47.7319 18.9371V16.7058C47.7319 16.5118 47.676 16.381 47.5643 16.3134C47.4526 16.2428 47.2674 16.2075 47.0087 16.2075V14.5716H50.4746L52.6794 18.0243V16.7058C52.6794 16.5118 52.6383 16.381 52.556 16.3134C52.4766 16.2428 52.3075 16.2075 52.0488 16.2075V14.5716H54.9019ZM58.9146 19.4309C59.0763 19.4309 59.2335 19.4133 59.3864 19.378C59.5422 19.3427 59.6774 19.2693 59.7921 19.1575C59.9097 19.0458 60.0052 18.8856 60.0787 18.6769C60.1522 18.4652 60.189 18.1816 60.189 17.8258C60.189 17.476 60.1537 17.1953 60.0831 16.9836C60.0126 16.769 59.92 16.6044 59.8053 16.4897C59.6936 16.3751 59.5584 16.3001 59.3996 16.2648C59.2438 16.2266 59.0821 16.2075 58.9146 16.2075H58.5001V19.4309H58.9146ZM55.1752 21.0669V19.4309C55.4339 19.4309 55.6191 19.3971 55.7309 19.3295C55.8426 19.259 55.8984 19.1281 55.8984 18.9371V16.7058C55.8984 16.5118 55.8426 16.381 55.7309 16.3134C55.6191 16.2428 55.4339 16.2075 55.1752 16.2075V14.5716H59.8538C60.2742 14.5716 60.6814 14.6274 61.0753 14.7391C61.4692 14.8508 61.819 15.0331 62.1248 15.2859C62.4334 15.5387 62.6804 15.8739 62.8656 16.2913C63.0537 16.7058 63.1478 17.2173 63.1478 17.8258C63.1478 18.4344 63.0552 18.9459 62.87 19.3604C62.6877 19.7749 62.4378 20.1085 62.1204 20.3614C61.8058 20.6142 61.4369 20.7964 61.0135 20.9081C60.5902 21.0199 60.1404 21.0757 59.6642 21.0757L55.1752 21.0669Z" fill="#524A4A"/>
</svg>
