<svg width="69" height="29" viewBox="0 0 69 29" fill="none" xmlns="http://www.w3.org/2000/svg">
<path fill-rule="evenodd" clip-rule="evenodd" d="M17.7356 17.3095L7.00901 28.0373L17.7356 22.6734L28.4634 28.0373L17.7356 17.3095ZM17.7356 0L0 28.0373L17.7356 10.2992L35.47 28.0373L17.7356 0Z" fill="#524A4A"/>
<path d="M49.2352 6.50303C49.006 7.08789 48.7768 7.62533 48.5476 8.11535C48.3263 8.59747 48.2156 8.86224 48.2156 8.90966C48.2156 8.94918 48.2275 8.96894 48.2512 8.96894C48.3144 8.96894 48.3816 8.92942 48.4527 8.85038C48.5239 8.76344 48.9467 8.29713 49.7212 7.45145C51.5312 5.47557 52.7523 4.36907 53.3845 4.13197C53.59 4.04503 53.7521 4.00156 53.8706 4.00156C53.9892 4.00156 54.1077 4.04503 54.2263 4.13197C54.3527 4.211 54.4159 4.29004 54.4159 4.36907C54.4159 4.4402 54.3804 4.50738 54.3093 4.57061L54.1077 4.72473C52.8273 5.71267 51.5391 6.90216 50.2429 8.29318C50.0295 8.53029 49.741 8.84643 49.3774 9.24161C49.0218 9.63679 48.7333 9.95688 48.512 10.2019C48.2907 10.4469 48.0259 10.7314 47.7177 11.0555C47.4095 11.3795 47.1486 11.6403 46.9352 11.8379C46.7298 12.0276 46.5124 12.2173 46.2832 12.407C45.8564 12.7705 45.5087 12.9523 45.2399 12.9523C44.9791 12.9523 44.7104 12.7666 44.4338 12.3951C44.1571 12.0158 44.0188 11.7075 44.0188 11.4704C44.0188 11.2333 44.248 10.6287 44.7064 9.65654C45.1648 8.6765 45.6035 7.98099 46.0224 7.57001C46.1251 7.46726 46.1765 7.38823 46.1765 7.3329C46.1765 7.26967 46.1409 7.23806 46.0698 7.23806C46.0066 7.23806 45.9433 7.27758 45.8801 7.35661C45.8169 7.42774 45.6391 7.63324 45.3466 7.97309C45.0621 8.30504 44.8131 8.59352 44.5997 8.83853C44.3863 9.07563 44.1058 9.38782 43.758 9.7751C43.4182 10.1545 43.106 10.4785 42.8214 10.7472C42.5448 11.016 42.2563 11.2847 41.956 11.5534C41.3395 12.1066 40.8653 12.3833 40.5334 12.3833C40.2567 12.3675 40.1184 12.1699 40.1184 11.7905C40.1184 11.4111 40.2726 10.8697 40.5808 10.1663C40.889 9.46291 41.1736 9.1112 41.4344 9.1112C41.6083 9.1112 41.6952 9.18628 41.6952 9.33645C41.6952 9.455 41.5806 9.74348 41.3514 10.2019C41.1143 10.6603 40.9957 10.9211 40.9957 10.9843C40.9957 11.0397 41.0115 11.0673 41.0432 11.0673C41.1143 11.0673 41.387 10.85 41.8612 10.4153C42.3354 9.97269 42.7898 9.53009 43.2245 9.08749L43.8884 8.43545C44.4733 7.8901 45.398 6.91797 46.6626 5.51904C47.0419 5.10015 47.4292 4.72868 47.8244 4.40464C48.2196 4.08059 48.5397 3.91857 48.7847 3.91857C49.0297 3.91857 49.2233 4.07664 49.3656 4.39278C49.5078 4.70892 49.579 4.99345 49.579 5.24637C49.579 5.49928 49.4644 5.91817 49.2352 6.50303ZM48.2621 12.9405C48.1436 12.8298 48.0843 12.6876 48.0843 12.5137C48.0843 11.9604 48.4123 11.3321 49.0683 10.6287C49.7322 9.92526 50.3486 9.52218 50.9177 9.41944C51.2734 9.41944 51.4512 9.62888 51.4512 10.0478C51.4512 10.1821 51.2734 10.4983 50.9177 10.9962C50.562 11.4941 50.155 11.9723 49.6966 12.4307C49.2382 12.8891 48.9142 13.1183 48.7245 13.1183C48.5348 13.1183 48.3807 13.059 48.2621 12.9405ZM51.6646 9.04007C52.044 9.00055 52.3561 8.83853 52.6012 8.554C52.8462 8.26157 52.9687 8.01261 52.9687 7.80711C52.9687 7.48307 52.8067 7.32105 52.4826 7.32105C52.2613 7.32105 52.0005 7.41984 51.7002 7.61743C51.3998 7.81502 51.2299 8.1035 51.1904 8.48287L51.2022 8.61328C51.218 8.70812 51.2655 8.80296 51.3445 8.8978C51.4235 8.99265 51.5302 9.04007 51.6646 9.04007ZM51.6828 8.03237C51.6828 7.90591 52.0227 7.79131 52.7024 7.68856C53.3821 7.58582 54.1092 7.51468 54.8838 7.47517C55.5319 6.8903 56.1167 6.39238 56.6384 5.9814L56.8992 5.768C57.0177 5.768 57.077 5.85494 57.077 6.02882L57.1007 6.60973C57.077 6.69667 56.911 6.96934 56.6028 7.42774H57.1837C58.061 7.42774 58.5668 7.51468 58.7012 7.68856C58.8434 7.85454 58.9146 7.9889 58.9146 8.09164C58.9146 8.226 58.7802 8.29713 58.5115 8.30504C58.2428 8.31294 57.401 8.31689 55.9863 8.31689C54.8561 9.47871 53.9709 10.5101 53.3307 11.4111C53.0857 11.7431 52.8723 12.0395 52.6905 12.3003C52.5088 12.5611 52.3665 12.7429 52.2637 12.8456C52.1689 12.9563 52.078 13.0116 51.9911 13.0116C51.7303 13.0116 51.509 12.9247 51.3272 12.7508C51.1454 12.5769 51.0545 12.3635 51.0545 12.1106C51.0545 11.4151 52.0227 10.1545 53.9591 8.32875H52.1333C51.833 8.32875 51.6828 8.22995 51.6828 8.03237ZM58.8864 10.9369C58.8785 11.016 58.6217 11.2254 58.1158 11.5653C57.61 11.8972 57.0251 12.2212 56.3612 12.5374C55.6973 12.8535 55.2192 13.0116 54.9267 13.0116C54.6422 13.0116 54.3972 12.9247 54.1917 12.7508C53.9862 12.569 53.8835 12.3635 53.8835 12.1343C53.8835 11.6601 54.0929 11.174 54.5118 10.6761C54.9386 10.1703 55.4286 9.76324 55.9819 9.455C56.543 9.13886 57.0172 8.98079 57.4045 8.98079C57.7997 8.98079 58.0961 9.03216 58.2937 9.13491C58.4912 9.22975 58.59 9.41153 58.59 9.68025C58.59 9.94898 58.4162 10.2612 58.0684 10.6168C57.7286 10.9646 57.4361 11.1385 57.1911 11.1385C57.033 11.1385 56.954 11.091 56.954 10.9962C56.954 10.933 56.9935 10.8776 57.0726 10.8302C57.1595 10.7828 57.2978 10.6721 57.4875 10.4983C57.6772 10.3244 57.772 10.2058 57.772 10.1426C57.772 10.1189 57.7483 10.107 57.7009 10.107C57.4243 10.107 57.033 10.36 56.5272 10.8658C56.0214 11.3716 55.7685 11.751 55.7685 12.0039C55.7685 12.1304 55.8357 12.1936 55.97 12.1936C56.1123 12.1936 56.3375 12.1145 56.6458 11.9565C56.954 11.7905 57.3334 11.5692 57.7839 11.2926C58.2344 11.016 58.4912 10.8618 58.5545 10.8302C58.6256 10.7907 58.6809 10.7709 58.7204 10.7709C58.8311 10.7709 58.8864 10.8263 58.8864 10.9369ZM63.7599 12.2529C63.4833 12.4663 63.1474 12.6717 62.7522 12.8693C62.3649 13.0669 62.0369 13.1657 61.7682 13.1657C61.5074 13.1657 61.2979 13.0867 61.1399 12.9286C60.9818 12.7705 60.9028 12.5769 60.9028 12.3477C60.9028 11.9683 61.1754 11.4586 61.7208 10.8184C61.7682 10.7709 61.7919 10.7354 61.7919 10.7117C61.7919 10.6801 61.784 10.6642 61.7682 10.6642C61.7524 10.6642 61.6931 10.684 61.5904 10.7235C61.4955 10.7551 61.2268 10.9369 60.7842 11.2689C60.3416 11.5929 59.9109 11.9407 59.492 12.3121C59.0731 12.6757 58.7727 12.8575 58.591 12.8575C58.4171 12.8575 58.2867 12.7824 58.1997 12.6322C58.1207 12.4821 58.0812 12.3121 58.0812 12.1225C58.0812 11.5376 58.5356 10.6484 59.4445 9.455C60.3614 8.26157 61.3177 7.19854 62.3135 6.26592C63.3094 5.3254 63.9456 4.85514 64.2222 4.85514C64.3566 4.85514 64.4831 4.91442 64.6016 5.03297C64.7281 5.14362 64.7913 5.29774 64.7913 5.49533C64.7913 5.68501 64.5542 6.1118 64.08 6.7757C63.6058 7.4396 63.0762 8.13906 62.4914 8.87409C61.7563 9.7909 61.3888 10.2888 61.3888 10.3679C61.3888 10.3995 61.4046 10.4153 61.4362 10.4153C61.4679 10.4153 61.6022 10.3521 61.8393 10.2256C62.0764 10.0912 62.3333 9.96873 62.6099 9.85808C62.8865 9.73953 63.0762 9.67235 63.179 9.65654C63.2896 9.63283 63.4161 9.62098 63.5583 9.62098C63.7085 9.62098 63.8547 9.65259 63.997 9.71582C64.1472 9.77905 64.2222 9.87389 64.2222 10.0003C64.2222 10.1189 63.9338 10.5101 63.3568 11.174C62.7877 11.83 62.5032 12.2054 62.5032 12.3003C62.5032 12.3872 62.5427 12.4307 62.6218 12.4307C62.7877 12.4307 63.1118 12.2568 63.5939 11.9091C63.7757 11.7826 63.8824 11.7115 63.914 11.6957C63.9456 11.6799 63.9812 11.6719 64.0207 11.6719C64.1313 11.6719 64.1867 11.7273 64.1867 11.8379C64.1867 11.9012 64.0444 12.0395 63.7599 12.2529ZM48.8321 16.6299C49.3853 16.6299 49.8042 16.705 50.0888 16.8551C50.3812 17.0053 50.5274 17.2385 50.5274 17.5546C50.5274 17.8707 50.3298 18.2225 49.9346 18.6097C49.5474 18.997 49.2707 19.1906 49.1048 19.1906C48.9388 19.1906 48.8558 19.1393 48.8558 19.0365C48.8558 18.9101 48.9586 18.748 49.164 18.5505C49.3774 18.345 49.4841 18.2185 49.4841 18.1711C49.4841 18.1474 49.4644 18.1355 49.4249 18.1355C49.006 18.1355 48.3737 18.4714 47.528 19.1432C46.6902 19.815 45.9275 20.5738 45.2399 21.4194C44.5602 22.2572 44.2204 22.8934 44.2204 23.3281C44.2204 23.4625 44.2678 23.5297 44.3626 23.5297C44.5839 23.5297 45.1688 23.095 46.1172 22.2256C47.0657 21.3562 47.9588 20.4829 48.7965 19.6056C48.8756 19.5898 48.9427 19.5819 48.9981 19.5819C49.0534 19.5819 49.1166 19.6056 49.1878 19.653C49.2589 19.6925 49.3103 19.736 49.3419 19.7834C49.3735 19.8308 49.3853 19.8901 49.3774 19.9612C49.3695 20.0245 49.3182 20.1667 49.2233 20.388C49.1285 20.6093 49.0178 20.8385 48.8914 21.0756C48.7728 21.3048 48.6227 21.5696 48.4409 21.8699C48.267 22.1703 48.1168 22.4192 47.9904 22.6168C47.8718 22.8065 47.7375 23.016 47.5873 23.2452C47.4292 23.506 47.3502 23.6601 47.3502 23.7075C47.3502 23.747 47.362 23.7668 47.3857 23.7668C47.4174 23.7668 47.4411 23.7628 47.4569 23.7549C47.4727 23.747 47.5162 23.7194 47.5873 23.6719C47.6584 23.6166 47.7414 23.5573 47.8362 23.4941C47.9311 23.4309 48.0022 23.3795 48.0496 23.34C48.0971 23.3005 48.1484 23.2807 48.2038 23.2807C48.267 23.2807 48.3223 23.3005 48.3697 23.34C48.4172 23.3795 48.4409 23.4269 48.4409 23.4823C48.4409 23.7352 48.1484 24.0434 47.5636 24.407C46.9787 24.7626 46.5717 24.9405 46.3425 24.9405C46.1212 24.9405 45.9394 24.8812 45.7971 24.7626C45.6628 24.6441 45.5956 24.5018 45.5956 24.3358C45.5956 24.162 45.643 23.9486 45.7379 23.6957L45.8801 23.3281C45.8801 23.3044 45.8722 23.2926 45.8564 23.2926C45.8406 23.2926 45.8129 23.3044 45.7734 23.3281C44.5326 24.3161 43.6079 24.8101 42.9993 24.8101C42.533 24.8101 42.1615 24.6283 41.8849 24.2647C41.6162 23.9012 41.4818 23.4348 41.4818 22.8658C41.4818 22.2967 41.6399 21.6921 41.956 21.0519C42.2722 20.4117 42.691 19.8348 43.2127 19.321C43.7422 18.7994 44.3271 18.3331 44.9673 17.9221C45.6074 17.5111 46.2753 17.195 46.9708 16.9737C47.6663 16.7445 48.2867 16.6299 48.8321 16.6299ZM50.9965 20.388C51.0518 20.388 51.1032 20.4157 51.1506 20.471C51.1981 20.5184 51.2218 20.5777 51.2218 20.6488C51.2218 20.7121 51.1823 20.7951 51.1032 20.8978C50.795 21.2772 50.5895 21.5182 50.4867 21.621C50.3919 21.7158 50.3445 21.779 50.3445 21.8107C50.3445 21.8423 50.3682 21.8581 50.4156 21.8581C50.4709 21.8581 50.6843 21.7909 51.0558 21.6565C51.4273 21.5143 51.6723 21.4431 51.7908 21.4431C51.9094 21.4431 52.0319 21.4945 52.1583 21.5973C52.2848 21.6921 52.348 21.8186 52.348 21.9766C52.348 22.1268 52.107 22.4785 51.6249 23.0318C51.1427 23.5771 50.9017 23.9328 50.9017 24.0987C50.9017 24.1304 50.9135 24.1462 50.9372 24.1462C50.9768 24.1462 51.0479 24.1225 51.1506 24.075C51.2534 24.0197 51.3166 23.992 51.3403 23.992C51.4273 23.992 51.4707 24.0237 51.4707 24.0869C51.4707 24.3319 51.2771 24.5769 50.8898 24.8219C50.5026 25.0669 50.1746 25.1894 49.9058 25.1894C49.645 25.1894 49.4316 25.1143 49.2656 24.9642C49.0997 24.8219 49.0167 24.6283 49.0167 24.3833C49.0167 24.1383 49.1352 23.8656 49.3723 23.5653C49.6174 23.257 49.8663 23.0397 50.1192 22.9132C50.38 22.7868 50.5105 22.684 50.5105 22.605C50.5105 22.5813 50.5065 22.5655 50.4986 22.5575C50.1508 22.6998 49.8663 22.7709 49.645 22.7709C49.2103 22.7709 48.993 22.6445 48.993 22.3916C48.993 22.0991 49.2459 21.7158 49.7517 21.2416C50.2575 20.7674 50.6725 20.4829 50.9965 20.388ZM54.4929 20.388C54.5482 20.388 54.5996 20.4157 54.647 20.471C54.6945 20.5184 54.7182 20.5777 54.7182 20.6488C54.7182 20.7121 54.6786 20.7951 54.5996 20.8978C54.2914 21.2772 54.0859 21.5182 53.9831 21.621C53.8883 21.7158 53.8409 21.779 53.8409 21.8107C53.8409 21.8423 53.8646 21.8581 53.912 21.8581C53.9673 21.8581 54.1807 21.7909 54.5522 21.6565C54.9237 21.5143 55.1687 21.4431 55.2872 21.4431C55.4058 21.4431 55.5283 21.4945 55.6547 21.5973C55.7812 21.6921 55.8444 21.8186 55.8444 21.9766C55.8444 22.1268 55.6034 22.4785 55.1212 23.0318C54.6391 23.5771 54.3981 23.9328 54.3981 24.0987C54.3981 24.1304 54.4099 24.1462 54.4336 24.1462C54.4732 24.1462 54.5443 24.1225 54.647 24.075C54.7498 24.0197 54.813 23.992 54.8367 23.992C54.9237 23.992 54.9671 24.0237 54.9671 24.0869C54.9671 24.3319 54.7735 24.5769 54.3862 24.8219C53.9989 25.0669 53.6709 25.1894 53.4022 25.1894C53.1414 25.1894 52.928 25.1143 52.762 24.9642C52.5961 24.8219 52.5131 24.6283 52.5131 24.3833C52.5131 24.1383 52.6316 23.8656 52.8687 23.5653C53.1137 23.257 53.3627 23.0397 53.6156 22.9132C53.8764 22.7868 54.0068 22.684 54.0068 22.605C54.0068 22.5813 54.0029 22.5655 53.995 22.5575C53.6472 22.6998 53.3627 22.7709 53.1414 22.7709C52.7067 22.7709 52.4894 22.6445 52.4894 22.3916C52.4894 22.0991 52.7423 21.7158 53.2481 21.2416C53.7539 20.7674 54.1689 20.4829 54.4929 20.388ZM59.1274 22.0003C59.1274 22.2137 59.2539 22.3204 59.5068 22.3204C59.7439 22.3204 60.0047 22.2612 60.2892 22.1426C60.5738 22.0241 60.7279 21.9648 60.7516 21.9648C60.7753 21.9648 60.799 21.9845 60.8227 22.0241C60.8543 22.0636 60.8701 22.1031 60.8701 22.1426C60.8701 22.2296 60.6844 22.3442 60.3129 22.4864C59.9494 22.6208 59.6846 22.688 59.5186 22.688C59.3527 22.688 59.2341 22.688 59.163 22.688C59.0998 22.6801 59.0484 22.7196 59.0089 22.8065C58.424 23.9051 57.8431 24.5967 57.2661 24.8812C57.0132 25.0076 56.7445 25.0709 56.46 25.0709C56.1833 25.0709 55.9541 24.98 55.7724 24.7982C55.5985 24.6085 55.5115 24.3121 55.5115 23.9091C55.5115 23.3479 55.6933 22.8263 56.0569 22.3442C56.4284 21.8541 56.8472 21.4866 57.3136 21.2416C57.7799 20.9966 58.2027 20.8741 58.5821 20.8741C59.2223 20.9452 59.5424 21.1389 59.5424 21.455C59.5424 21.5419 59.5186 21.621 59.4712 21.6921C59.4317 21.7553 59.3961 21.7949 59.3645 21.8107C59.3408 21.8186 59.3092 21.8265 59.2697 21.8344C59.1748 21.8581 59.1274 21.9134 59.1274 22.0003ZM58.1553 22.5457C57.9024 22.7354 57.6534 22.9764 57.4084 23.2689C57.1713 23.5613 57.0527 23.8024 57.0527 23.992C57.0527 24.1738 57.1041 24.2647 57.2069 24.2647C57.3649 24.2647 57.6534 24.0237 58.0723 23.5415C58.4991 23.0515 58.7125 22.6484 58.7125 22.3323C58.7125 22.2849 58.6809 22.2612 58.6176 22.2612C58.5623 22.2612 58.4082 22.356 58.1553 22.5457ZM62.9921 20.72L62.9328 20.9926C62.9328 21.0085 62.9525 21.0638 62.9921 21.1586C63.0395 21.2456 63.0592 21.3285 63.0513 21.4076C63.0513 21.4866 62.917 21.6724 62.6483 21.9648C62.3795 22.2572 62.2452 22.4271 62.2452 22.4746C62.2452 22.522 62.2531 22.5457 62.2689 22.5457C62.3558 22.5457 62.83 22.2216 63.6915 21.5736C63.8891 21.4234 64.1025 21.3483 64.3317 21.3483C64.5688 21.3483 64.6874 21.459 64.6874 21.6803C64.6874 22.028 64.4542 22.5496 63.9879 23.2452C63.9168 23.3558 63.8654 23.4309 63.8338 23.4704C63.8101 23.5099 63.7982 23.5494 63.7982 23.589C63.7982 23.6206 63.8101 23.6364 63.8338 23.6364C63.8575 23.6364 63.9049 23.6166 63.9761 23.5771C64.0472 23.5297 64.5451 23.095 65.4698 22.273C66.4024 21.4431 66.9834 20.9452 67.2126 20.7793C67.4418 20.6133 67.6077 20.5303 67.7105 20.5303C67.8132 20.5303 67.8962 20.554 67.9594 20.6014C68.0306 20.6409 68.0661 20.7002 68.0661 20.7793C68.0661 20.8583 67.9555 20.9689 67.7342 21.1112C67.5129 21.2456 67.1059 21.5657 66.5131 22.0715C65.9203 22.5773 65.3355 23.0871 64.7585 23.6008C64.1815 24.1145 63.8536 24.403 63.7745 24.4663C63.2845 24.8772 62.8577 25.0827 62.4941 25.0827C62.2887 25.0827 62.1266 25.0195 62.0081 24.893C61.8974 24.7745 61.8421 24.6085 61.8421 24.3951C61.8421 24.1738 61.9409 23.9051 62.1385 23.589C62.3361 23.2728 62.4349 23.0989 62.4349 23.0673C62.4349 23.0357 62.423 23.0199 62.3993 23.0199C62.3361 23.0436 62.1899 23.1345 61.9607 23.2926C61.2968 23.751 60.8107 24.079 60.5024 24.2766C60.1942 24.4742 59.9887 24.573 59.886 24.573C59.7832 24.573 59.6726 24.4979 59.554 24.3477C59.4434 24.1975 59.388 24.0671 59.388 23.9565C59.388 23.664 59.6054 23.2412 60.0401 22.688C60.4827 22.1347 60.9767 21.6368 61.522 21.1942C62.0674 20.7516 62.4783 20.5303 62.755 20.5303C62.913 20.5461 62.9921 20.6093 62.9921 20.72Z" fill="#524A4A"/>
</svg>
