<svg width="80" height="24" viewBox="0 0 80 24" fill="none" xmlns="http://www.w3.org/2000/svg">
<path fill-rule="evenodd" clip-rule="evenodd" d="M13.1346 12.1033V4.37598H2.52612L4.21022 7.29271H7.57935H10.217V11.8617V22.6032L13.1346 19.6865V15.0219H18.969V19.6865L21.8867 22.5948V11.8617V7.29271H24.5243H27.8934L29.5775 4.37598H18.969V12.1033H13.1346Z" fill="#524A4A"/>
<path fill-rule="evenodd" clip-rule="evenodd" d="M1.6841 2.91673H14.593V10.645H17.5107V2.91673H30.4196L32.1046 0H0L1.6841 2.91673Z" fill="#524A4A"/>
<path d="M37.4792 19.3609L36.3822 21.3315C35.1166 20.6922 34.105 20.1754 33.3474 19.7813C34.3196 18.8748 34.8604 18.2376 34.9699 17.8698C34.9874 17.8041 34.9962 17.7275 34.9962 17.6399C34.9962 17.2239 34.8144 16.6151 34.451 15.8138C34.0875 15.0124 33.8445 14.4628 33.7218 14.165C33.6036 13.8628 33.5445 13.6307 33.5445 13.4687C33.5445 13.3067 33.5708 13.1665 33.6233 13.0483C33.7459 12.7768 34.035 12.5294 34.4904 12.306C34.9458 12.0783 35.6377 11.7937 36.5661 11.4521C36.6975 11.7586 36.7938 11.9885 36.8551 12.1418C36.2683 12.3345 35.9465 12.5754 35.8895 12.8644C35.8764 12.9257 35.8698 12.9914 35.8698 13.0614C35.8698 13.3111 35.953 13.6066 36.1194 13.9482C37.6653 12.433 38.5105 11.601 38.655 11.4521C39.0447 11.7105 39.3754 11.9579 39.6469 12.1944C39.9228 12.4265 40.2534 12.6389 40.6388 12.8315L41.9525 11.4521C42.478 11.7367 43.0057 12.0214 43.5356 12.306C44.0655 12.5863 44.6172 12.8272 45.1909 13.0286C44.4859 13.5103 44.1136 14.327 44.0742 15.4787L44.002 17.9223C44.002 17.9705 44.002 18.0187 44.002 18.0668C44.002 18.7763 44.2538 19.2076 44.7574 19.3609L43.7129 21.3315C43.078 21.0994 42.6379 20.7403 42.3926 20.2542C42.1518 19.7638 42.0313 19.0872 42.0313 18.2245C42.0313 18.1632 42.0313 18.1019 42.0313 18.0406L42.0445 16.3852C42.0445 15.9867 42.1167 15.6386 42.2612 15.3408C42.4058 15.043 42.5941 14.743 42.8262 14.4409C41.9459 13.7971 41.2869 13.449 40.849 13.3964C40.6825 13.6461 40.5972 13.9417 40.5928 14.2832C40.5928 14.6248 40.584 15.0233 40.5665 15.4787L40.4942 17.9223C40.4942 17.9705 40.4942 18.0187 40.4942 18.0668C40.4942 18.8595 40.7023 19.3237 41.1183 19.4594L39.5812 21.3315C39.3447 21.0337 39.0776 20.7513 38.7798 20.4842C38.482 20.217 38.2017 19.9718 37.939 19.7485C38.0704 19.5952 38.1996 19.3543 38.3265 19.0259C38.4535 18.6974 38.5192 18.369 38.5236 18.0406L38.7535 13.9745C38.3725 13.6899 38.0769 13.5475 37.8667 13.5475C37.8142 13.5475 37.766 13.5563 37.7222 13.5738C37.5164 13.6658 37.0982 14.0161 36.4676 14.6248L36.553 14.7759C36.8814 15.389 37.0456 15.897 37.0456 16.2998C37.0456 16.4093 37.0325 16.5122 37.0062 16.6086C36.888 17.0509 36.472 17.7362 35.7582 18.6646C36.1698 18.9624 36.7435 19.1945 37.4792 19.3609ZM53.415 12.7002L52.2983 14.0008C51.6152 13.5278 50.9473 13.2454 50.2948 13.1534C50.2554 13.53 50.2292 13.9592 50.216 14.4409H52.9289V15.9911H50.2489C50.262 16.4903 50.3124 17.0706 50.4 17.7318L48.8891 18.2836C49.7168 19.0281 50.8685 19.4003 52.3443 19.4003C52.5107 19.4003 52.6815 19.3959 52.8567 19.3872L51.4181 21.3315C49.557 21.1301 48.125 20.4732 47.1221 19.3609C46.1237 18.2486 45.6245 16.6086 45.6245 14.4409L50.7218 11.4521C51.3393 11.8769 52.237 12.2929 53.415 12.7002ZM48.3833 17.745L48.8694 17.5808C48.7381 16.6217 48.6724 15.7919 48.6724 15.0912C48.6724 14.3905 48.6833 13.83 48.7052 13.4096C48.4425 13.541 48.2279 13.6942 48.0615 13.8694C47.8994 14.0446 47.7812 14.2154 47.7068 14.3818C47.6367 14.5438 47.6017 14.7759 47.6017 15.0781C47.6017 15.3758 47.606 15.6014 47.6148 15.7546C47.6454 16.4465 47.9016 17.11 48.3833 17.745ZM54.9193 18.2376C54.9543 17.8304 54.9718 17.4428 54.9718 17.075C54.9718 16.7071 54.9565 16.359 54.9258 16.0305C54.8645 15.3474 54.6346 14.8087 54.2361 14.4146C55.2608 14.3664 56.244 14.1562 57.1855 13.784C56.2308 13.3067 55.0879 13.068 53.7566 13.068C53.6865 13.068 53.6165 13.068 53.5464 13.068L55.7075 11.4521C57.7263 11.763 59.224 12.479 60.2006 13.6001C61.1815 14.7212 61.7092 16.1969 61.7836 18.0274L57.9146 21.3315C56.6666 20.7009 55.1864 20.1776 53.4741 19.7616L54.9193 18.2376ZM57.4942 13.9548C57.3585 14.2044 57.2512 14.4453 57.1724 14.6774C57.0935 14.9051 57.0541 15.124 57.0541 15.3342C57.0541 15.5444 57.0563 15.8116 57.0607 16.1356C57.0694 16.4553 57.0848 16.7575 57.1067 17.0421C57.1286 17.3268 57.2052 17.6618 57.3366 18.0471C57.2446 18.0384 57.1548 18.034 57.0673 18.034C56.625 18.034 56.2046 18.1238 55.806 18.3033C56.8571 19.0697 57.6738 19.4529 58.2562 19.4529C58.4971 19.4529 58.6985 19.385 58.8605 19.2492C59.3554 18.8332 59.6028 18.2333 59.6028 17.4494C59.6028 16.7531 59.4211 16.1006 59.0576 15.4919C58.6941 14.8788 58.173 14.3664 57.4942 13.9548ZM68.7268 11.5769C68.3196 12.2951 68.0459 12.7856 67.9057 13.0483C68.0021 14.1475 68.0918 15.0562 68.175 15.7743C68.2582 16.4925 68.2999 16.9786 68.2999 17.2326C68.2999 17.9727 68.1575 18.5507 67.8729 18.9668C67.4656 19.2514 67.0518 19.6017 66.6314 20.0178C66.2154 20.4338 65.795 20.8717 65.3702 21.3315C64.6038 20.9724 63.7127 20.5498 62.6967 20.0638C62.3288 19.9149 62.1449 19.6499 62.1449 19.2689C62.1449 19.1682 62.1624 19.0127 62.1975 18.8025C62.2369 18.588 62.2829 18.3274 62.3354 18.0209C62.3923 17.7099 62.4471 17.399 62.4996 17.0881C62.977 17.7143 63.4871 18.2135 64.0301 18.5858C64.5732 18.9536 65.1337 19.2492 65.7118 19.4726C65.7906 19.5032 65.8869 19.5185 66.0008 19.5185C66.119 19.5185 66.2416 19.4419 66.3686 19.2886C66.5 19.1354 66.5657 18.9317 66.5657 18.6777C66.5657 18.4194 66.5438 18.0975 66.5 17.7121C66.4606 17.3268 66.3905 16.8363 66.2898 16.2407C66.1891 15.6452 66.0949 15.0452 66.0073 14.4409C66.3533 14.165 66.7168 13.8212 67.0978 13.4096C66.8 13.4402 66.4365 13.4556 66.0073 13.4556C65.5826 13.4556 65.1578 13.414 64.733 13.3308C64.3126 13.2432 63.9754 13.1994 63.7214 13.1994C63.2178 13.1994 62.7755 13.3154 62.3945 13.5475C62.6047 12.7374 62.92 11.9798 63.3404 11.2747C64.6235 11.4849 66.0774 11.59 67.7021 11.59C68.0349 11.59 68.3765 11.5857 68.7268 11.5769ZM73.5155 13.4818C73.0688 13.368 72.6352 13.3111 72.2148 13.3111C71.1814 13.3111 70.2398 13.6614 69.3903 14.3621C69.3946 14.3183 69.3793 14.2044 69.3443 14.0205C69.3136 13.8322 69.3027 13.7161 69.3114 13.6723C70.4632 12.7264 71.7156 11.9864 73.0688 11.4521C74.838 11.9776 76.4648 12.7002 77.9494 13.6198C77.853 13.7774 77.7326 13.9154 77.5881 14.0336C77.4436 14.1519 77.3232 14.2876 77.2268 14.4409C77.1962 14.5241 77.1808 14.6423 77.1808 14.7956V15.1503L77.2268 18.6712C77.2399 18.9558 77.2925 19.1332 77.3845 19.2032L78.0479 19.7485L76.8918 21.3315L75.3876 20.0572C75.4839 19.3697 75.5321 18.4697 75.5321 17.3574H73.0753C72.9089 18.9076 72.4338 20.2214 71.6499 21.2987C70.8704 22.376 70.1676 23.219 69.5414 23.8277C69.3574 23.6963 69.191 23.5868 69.0421 23.4992C69.5501 22.9693 69.9289 22.3628 70.1785 21.6797C70.4325 20.9965 70.6493 20.2761 70.8288 19.5185C71.0084 18.7566 71.0981 18.0121 71.0981 17.2852C71.0981 16.5538 70.9383 15.8685 70.6186 15.2291C71.6828 14.6993 72.6484 14.1168 73.5155 13.4818ZM75.5058 15.8138C75.497 15.2926 75.4927 14.973 75.4927 14.8547C75.4927 14.7321 75.4948 14.5942 75.4992 14.4409C75.0657 14.1343 74.6103 13.8825 74.1329 13.6855C73.822 13.9176 73.5855 14.1847 73.4235 14.4869C73.2615 14.7846 73.1651 15.2269 73.1345 15.8138H75.5058Z" fill="#524A4A"/>
<path d="M50.6528 8.12695V3.1281H52.4421C53.0254 3.1281 53.4688 3.26674 53.7722 3.54402C54.0783 3.81868 54.2313 4.18097 54.2313 4.6309C54.2313 5.07559 54.0783 5.43526 53.7722 5.70993C53.4688 5.98459 53.0254 6.12192 52.4421 6.12192H51.3983V8.12695H50.6528ZM53.4112 8.12695L52.0261 5.82764H52.8305L54.3804 8.12695H53.4112ZM51.3983 5.61183H52.3754C52.7311 5.61183 53.0018 5.52682 53.1876 5.35679C53.3733 5.18414 53.4662 4.9618 53.4662 4.68975C53.4662 4.40986 53.3785 4.18751 53.2033 4.02272C53.0306 3.8553 52.7769 3.7716 52.4421 3.7716H51.3983V5.61183ZM58.2569 8.22897C57.8305 8.22897 57.4512 8.13218 57.119 7.93861C56.7868 7.74504 56.5252 7.45599 56.3342 7.07147C56.1459 6.68694 56.0517 6.20693 56.0517 5.63145C56.0517 5.0455 56.1459 4.56158 56.3342 4.17966C56.5252 3.79514 56.7868 3.5087 57.119 3.32036C57.4512 3.13202 57.8305 3.03785 58.2569 3.03785C58.6859 3.03785 59.0665 3.13333 59.3987 3.32429C59.7335 3.51524 59.9951 3.80429 60.1834 4.19144C60.3744 4.57596 60.4699 5.05597 60.4699 5.63145C60.4699 6.21217 60.3744 6.69609 60.1834 7.08324C59.9951 7.46776 59.7335 7.75551 59.3987 7.94646C59.0665 8.1348 58.6859 8.22897 58.2569 8.22897ZM58.2569 7.54624C58.7016 7.54624 59.0521 7.38275 59.3084 7.05577C59.5674 6.72879 59.6969 6.2514 59.6969 5.6236C59.6969 5.0115 59.5674 4.53934 59.3084 4.20713C59.0521 3.8723 58.7016 3.70489 58.2569 3.70489C57.82 3.70489 57.4721 3.8723 57.2131 4.20713C56.9542 4.54196 56.8247 5.01673 56.8247 5.63145C56.8247 6.25402 56.9542 6.72879 57.2131 7.05577C57.4721 7.38275 57.82 7.54624 58.2569 7.54624ZM64.3083 8.22897C63.8819 8.22897 63.5026 8.13218 63.1704 7.93861C62.8382 7.74504 62.5766 7.45599 62.3857 7.07147C62.1973 6.68694 62.1032 6.20693 62.1032 5.63145C62.1032 5.0455 62.1973 4.56158 62.3857 4.17966C62.5766 3.79514 62.8382 3.5087 63.1704 3.32036C63.5026 3.13202 63.8819 3.03785 64.3083 3.03785C64.7373 3.03785 65.1179 3.13333 65.4501 3.32429C65.785 3.51524 66.0465 3.80429 66.2349 4.19144C66.4258 4.57596 66.5213 5.05597 66.5213 5.63145C66.5213 6.21217 66.4258 6.69609 66.2349 7.08324C66.0465 7.46776 65.785 7.75551 65.4501 7.94646C65.1179 8.1348 64.7373 8.22897 64.3083 8.22897ZM64.3083 7.54624C64.753 7.54624 65.1035 7.38275 65.3599 7.05577C65.6188 6.72879 65.7483 6.2514 65.7483 5.6236C65.7483 5.0115 65.6188 4.53934 65.3599 4.20713C65.1035 3.8723 64.753 3.70489 64.3083 3.70489C63.8715 3.70489 63.5236 3.8723 63.2646 4.20713C63.0056 4.54196 62.8762 5.01673 62.8762 5.63145C62.8762 6.25402 63.0056 6.72879 63.2646 7.05577C63.5236 7.38275 63.8715 7.54624 64.3083 7.54624ZM67.8133 3.7716V3.1281H71.7527V3.7716H69.987L70.1557 3.59895V8.12695H69.4102V3.59895L69.575 3.7716H67.8133Z" fill="#524A4A"/>
</svg>
