<svg width="71" height="35" viewBox="0 0 71 35" fill="none" xmlns="http://www.w3.org/2000/svg">
<path fill-rule="evenodd" clip-rule="evenodd" d="M9.09924 4.59248V16.0844L6.01226 13.0027C5.09139 12.0725 4.57484 10.8165 4.57484 9.50758C4.57484 8.19867 5.09139 6.94265 6.01226 6.01246C6.83944 5.18681 7.93404 4.68331 9.09924 4.59248ZM23.3571 8.47459L13.6748 18.1569V0.952053C12.2509 0.264767 10.6789 -0.0592687 9.09924 0.00890703C6.71793 0.106565 4.46057 1.09683 2.77604 2.78281C0.997993 4.57163 0 6.99135 0 9.51351C0 12.0357 0.997993 14.4554 2.77604 16.2442L8.02532 21.4922L9.09924 22.5674V24.4008C9.0403 25.6197 8.53043 26.7731 7.66868 27.637C6.93923 28.3575 6.0052 28.8354 4.9941 29.0054C3.98301 29.1753 2.9441 29.0291 2.01916 28.5868V33.4028C3.59303 33.7666 5.23353 33.7248 6.78681 33.2812C8.34009 32.8376 9.75526 32.0068 10.8996 30.8666C12.5655 29.1999 13.551 26.9726 13.6643 24.6188L15.0129 25.9674L21.4854 32.4398H27.9578L18.2518 22.7325L13.6735 18.1569L20.1209 18.1806L29.8269 8.47459H23.3571Z" fill="#524A4A"/>
<path d="M34.6035 31.6372V21.7998H36.016V31.6372H34.6035ZM37.3403 28.0554L39.7744 31.6372H38.1348L36.407 28.8626L37.3403 28.0554ZM35.5872 30.0355L35.4485 28.6734L38.6898 26.1762L39.5474 26.9329L35.5872 30.0355ZM43.5064 31.7759C42.8758 31.7759 42.3377 31.654 41.892 31.4102C41.4464 31.1664 41.1059 30.83 40.8705 30.4012C40.635 29.964 40.5173 29.4721 40.5173 28.9256C40.5173 28.3875 40.6518 27.904 40.9209 27.4752C41.19 27.0464 41.5515 26.7059 42.0055 26.4537C42.468 26.193 42.9767 26.0627 43.5316 26.0627C44.2631 26.0627 44.8643 26.2771 45.3351 26.7059C45.8144 27.1263 46.1339 27.7233 46.2936 28.4968L41.9929 29.9472L41.665 29.1526L45.0198 27.9545L44.7297 28.1184C44.6372 27.8662 44.4859 27.6476 44.2757 27.4626C44.0739 27.2776 43.788 27.1852 43.4181 27.1852C43.1238 27.1852 42.8632 27.2566 42.6361 27.3996C42.4091 27.5341 42.2283 27.7275 42.0938 27.9797C41.9677 28.2235 41.9046 28.5136 41.9046 28.8499C41.9046 29.1947 41.9761 29.4974 42.119 29.758C42.262 30.0187 42.4554 30.2205 42.6992 30.3634C42.943 30.4979 43.2205 30.5652 43.5316 30.5652C43.7502 30.5652 43.9604 30.5273 44.1622 30.4517C44.364 30.376 44.5532 30.2751 44.7297 30.149L45.373 31.1958C45.0955 31.3724 44.7886 31.5153 44.4523 31.6246C44.1244 31.7255 43.8091 31.7759 43.5064 31.7759ZM48.9573 26.3023L49.0835 27.8158L49.033 27.6014C49.1843 27.2818 49.3903 27.0086 49.651 26.7816C49.9201 26.5461 50.1933 26.3696 50.4708 26.2519C50.7482 26.1257 50.9753 26.0627 51.1518 26.0627L51.0888 27.4752C50.6852 27.4416 50.332 27.5173 50.0294 27.7023C49.7351 27.8788 49.5039 28.1142 49.3357 28.4085C49.1759 28.7028 49.0961 29.0139 49.0961 29.3418V31.6372H47.6835V26.3023H48.9573ZM54.6949 31.7759C54.1904 31.7759 53.7322 31.6708 53.3202 31.4606C52.9166 31.2504 52.5971 30.9393 52.3617 30.5273C52.1263 30.1069 52.0086 29.5899 52.0086 28.9761C52.0086 28.3707 52.1305 27.8536 52.3743 27.4248C52.6265 26.9876 52.9545 26.6512 53.358 26.4158C53.77 26.1804 54.2157 26.0627 54.6949 26.0627C55.2078 26.0627 55.6198 26.1636 55.9309 26.3654C56.2504 26.5672 56.4984 26.8068 56.675 27.0843L56.5993 27.2861L56.7381 26.3023H58.0371V31.6372H56.6246V30.3382L56.7633 30.6787C56.7297 30.7291 56.6624 30.8132 56.5615 30.9309C56.4606 31.0402 56.3219 31.1622 56.1453 31.2967C55.9687 31.4312 55.7585 31.5447 55.5147 31.6372C55.2793 31.7297 55.006 31.7759 54.6949 31.7759ZM55.0859 30.6156C55.3381 30.6156 55.5652 30.5694 55.7669 30.4769C55.9771 30.3844 56.1537 30.2541 56.2967 30.0859C56.448 29.9178 56.5573 29.716 56.6246 29.4805V28.3202C56.5573 28.1016 56.448 27.9125 56.2967 27.7527C56.1453 27.5845 55.9603 27.4542 55.7417 27.3617C55.5315 27.2692 55.2961 27.223 55.0354 27.223C54.7496 27.223 54.4847 27.2945 54.2409 27.4374C53.9971 27.5803 53.7995 27.7779 53.6481 28.0302C53.5052 28.2824 53.4337 28.5725 53.4337 28.9004C53.4337 29.2199 53.5094 29.51 53.6607 29.7706C53.8121 30.0313 54.0139 30.2373 54.2661 30.3886C54.5184 30.54 54.7916 30.6156 55.0859 30.6156ZM59.9876 21.7998H61.4002V31.6372H59.9876V21.7998ZM65.5827 31.7759C65.0782 31.7759 64.6199 31.6708 64.2079 31.4606C63.8044 31.2504 63.4849 30.9393 63.2494 30.5273C63.014 30.1069 62.8963 29.5899 62.8963 28.9761C62.8963 28.3707 63.0182 27.8536 63.262 27.4248C63.5143 26.9876 63.8422 26.6512 64.2458 26.4158C64.6578 26.1804 65.1034 26.0627 65.5827 26.0627C66.0956 26.0627 66.5075 26.1636 66.8186 26.3654C67.1381 26.5672 67.3862 26.8068 67.5628 27.0843L67.4871 27.2861L67.6258 26.3023H68.9249V31.6372H67.5123V30.3382L67.651 30.6787C67.6174 30.7291 67.5501 30.8132 67.4492 30.9309C67.3483 31.0402 67.2096 31.1622 67.033 31.2967C66.8565 31.4312 66.6463 31.5447 66.4024 31.6372C66.167 31.7297 65.8938 31.7759 65.5827 31.7759ZM65.9736 30.6156C66.2259 30.6156 66.4529 30.5694 66.6547 30.4769C66.8649 30.3844 67.0415 30.2541 67.1844 30.0859C67.3357 29.9178 67.445 29.716 67.5123 29.4805V28.3202C67.445 28.1016 67.3357 27.9125 67.1844 27.7527C67.033 27.5845 66.8481 27.4542 66.6295 27.3617C66.4193 27.2692 66.1838 27.223 65.9232 27.223C65.6373 27.223 65.3725 27.2945 65.1286 27.4374C64.8848 27.5803 64.6872 27.7779 64.5359 28.0302C64.3929 28.2824 64.3215 28.5725 64.3215 28.9004C64.3215 29.2199 64.3971 29.51 64.5485 29.7706C64.6998 30.0313 64.9016 30.2373 65.1539 30.3886C65.4061 30.54 65.6794 30.6156 65.9736 30.6156Z" fill="#524A4A"/>
</svg>
