<svg width="76" height="30" viewBox="0 0 76 30" fill="none" xmlns="http://www.w3.org/2000/svg">
<path fill-rule="evenodd" clip-rule="evenodd" d="M4.34739 4.90446H21.1798L26.7628 14.5745L21.1798 24.2445H7.07407L4.24727 29.149H24.0066L32.4222 14.5733L24.0066 0H7.1789L4.34739 4.90446ZM6.34971 20.5921H20.1928L17.366 15.6887H9.18358L11.1623 12.2601H22.5873L19.7605 7.35675H8.33554L0 21.7934L2.8268 26.698L6.34971 20.5921Z" fill="#524A4A"/>
<path d="M38.4303 18.8699V9.6649H43.7903V18.8699H38.4303ZM42.2589 17.1348H43.6111V16.2061H42.9757L42.2589 14.8865C42.563 14.767 42.8074 14.5878 42.992 14.3488C43.1767 14.1045 43.269 13.8031 43.269 13.4446C43.269 12.9124 43.0925 12.5133 42.7395 12.2472C42.3865 11.9756 41.8814 11.8399 41.2243 11.8399H38.8294V12.7685H39.3996V16.2061H38.8294V17.1348H41.0614V16.2061H40.4912V15.1146H41.208L42.2589 17.1348ZM42.096 13.4691C42.096 13.7189 42.0199 13.9117 41.8679 14.0474C41.7158 14.1832 41.4307 14.2511 41.0125 14.2511H40.4912V12.7685H41.0288C41.4253 12.7685 41.7022 12.8201 41.8597 12.9233C42.0172 13.021 42.096 13.203 42.096 13.4691ZM43.6249 18.8699V9.6649H49.5878V18.8699H43.6249ZM49.3108 14.4792C49.3108 13.7352 49.0719 13.0971 48.594 12.5649C48.1215 12.0272 47.4617 11.7584 46.6145 11.7584C45.7836 11.7584 45.1238 12.0218 44.635 12.5486C44.1463 13.0754 43.9019 13.7243 43.9019 14.4955C43.9019 15.234 44.1327 15.8721 44.5943 16.4098C45.0559 16.9474 45.7184 17.2162 46.5819 17.2162C47.44 17.2162 48.1079 16.9474 48.5858 16.4098C49.0691 15.8721 49.3108 15.2286 49.3108 14.4792ZM48.1296 14.5118C48.1296 15.0277 48.0102 15.4485 47.7712 15.7744C47.5323 16.0948 47.1548 16.255 46.6389 16.255C46.0796 16.255 45.6804 16.0785 45.4415 15.7255C45.2025 15.3725 45.083 14.9544 45.083 14.471C45.083 13.9714 45.2052 13.556 45.4496 13.2247C45.694 12.888 46.0796 12.7196 46.6063 12.7196C47.1005 12.7196 47.478 12.8771 47.7386 13.1921C47.9993 13.5071 48.1296 13.947 48.1296 14.5118ZM49.4242 18.8699V9.6649H55.387V18.8699H49.4242ZM55.1101 14.4792C55.1101 13.7352 54.8711 13.0971 54.3932 12.5649C53.9207 12.0272 53.2609 11.7584 52.4137 11.7584C51.5828 11.7584 50.923 12.0218 50.4343 12.5486C49.9455 13.0754 49.7011 13.7243 49.7011 14.4955C49.7011 15.234 49.9319 15.8721 50.3935 16.4098C50.8551 16.9474 51.5177 17.2162 52.3811 17.2162C53.2392 17.2162 53.9072 16.9474 54.3851 16.4098C54.8684 15.8721 55.1101 15.2286 55.1101 14.4792ZM53.9289 14.5118C53.9289 15.0277 53.8094 15.4485 53.5705 15.7744C53.3315 16.0948 52.9541 16.255 52.4382 16.255C51.8788 16.255 51.4797 16.0785 51.2407 15.7255C51.0018 15.3725 50.8823 14.9544 50.8823 14.471C50.8823 13.9714 51.0045 13.556 51.2489 13.2247C51.4932 12.888 51.8788 12.7196 52.4056 12.7196C52.8998 12.7196 53.2772 12.8771 53.5379 13.1921C53.7985 13.5071 53.9289 13.947 53.9289 14.5118ZM55.2234 18.8699V9.6649H60.6975V18.8699H55.2234ZM59.5 13.7135L60.4287 13.632L60.2658 11.8399H55.6388L55.4759 13.632L56.4046 13.7135L56.5675 12.7685H57.4065V16.2061H56.5919V17.1348H59.3616V16.2061H58.4981V12.7685H59.3371L59.5 13.7135ZM60.4966 18.8699V9.6649H62.191V18.8699H60.4966ZM61.9852 18.8699V9.6649H67.0276V18.8699H61.9852ZM66.8239 13.5668C66.8239 13.0346 66.6528 12.6137 66.3107 12.3042C65.9686 11.9946 65.469 11.8399 64.8119 11.8399H62.3844V12.7685H62.9546V16.2061H62.3844V17.1348H64.8607V16.2061H64.0461V15.3589H64.8607C65.3821 15.3589 65.8382 15.2123 66.2293 14.9191C66.6257 14.6204 66.8239 14.1696 66.8239 13.5668ZM65.6509 13.5831C65.6509 13.8384 65.5776 14.0447 65.4309 14.2022C65.2898 14.3597 65.0318 14.4384 64.6571 14.4384H64.0461V12.7685H64.6734C65.0372 12.7685 65.2898 12.8391 65.4309 12.9803C65.5776 13.1215 65.6509 13.3224 65.6509 13.5831ZM66.8616 9.6649H72.352V16.2061H71.847L69.9408 11.8399H68.1243V12.7685H68.8574L67.3423 16.2061H66.8616V9.6649ZM69.6231 13.3958L70.1771 14.8865H68.9796L69.5743 13.3958H69.6231ZM72.352 18.8699H66.8616V17.1348H68.947V16.2061H68.4501L68.6701 15.6685H70.4703L70.6658 16.2061H70.2422V17.1348H72.352V18.8699ZM72.1915 18.8699V9.6649H75.23V18.8699H72.1915ZM72.5907 17.1348H74.8227V16.2061H74.2525V12.7685H74.8227V11.8399H72.5907V12.7685H73.1609V16.2061H72.5907V17.1348Z" fill="#524A4A"/>
</svg>
