<svg width="922" height="343" viewBox="0 0 922 343" fill="none" xmlns="http://www.w3.org/2000/svg">
<g filter="url(#filter0_d_277_1820)">
<path d="M152.066 106.592V136.422H55.3333V106.592H152.066ZM79.5166 270.229V91.1449C79.5166 80.1364 81.7893 70.9745 86.3348 63.6591C90.9512 56.3438 97.1302 50.8751 104.872 47.2529C112.613 43.6307 121.207 41.8197 130.653 41.8197C137.329 41.8197 143.259 42.3523 148.444 43.4177C153.629 44.483 157.464 45.4418 159.95 46.2941L152.279 76.1236C150.646 75.6265 148.586 75.1293 146.1 74.6322C143.615 74.064 140.845 73.7799 137.791 73.7799C130.617 73.7799 125.539 75.5199 122.556 79.0001C119.644 82.4091 118.188 87.3097 118.188 93.7018V270.229H79.5166ZM211.79 273.531C201.421 273.531 192.082 271.685 183.772 267.992C175.533 264.227 168.999 258.688 164.17 251.372C159.411 244.057 157.032 235.037 157.032 224.313C157.032 215.08 158.736 207.445 162.145 201.408C165.555 195.371 170.207 190.541 176.101 186.919C181.996 183.297 188.637 180.563 196.023 178.716C203.481 176.798 211.187 175.413 219.141 174.561C228.729 173.567 236.506 172.679 242.472 171.898C248.438 171.046 252.77 169.767 255.469 168.063C258.239 166.287 259.624 163.553 259.624 159.859V159.22C259.624 151.195 257.245 144.98 252.486 140.577C247.728 136.173 240.874 133.972 231.925 133.972C222.479 133.972 214.986 136.031 209.447 140.151C203.978 144.27 200.285 149.135 198.367 154.746L162.359 149.632C165.199 139.689 169.887 131.379 176.421 124.703C182.955 117.956 190.945 112.913 200.391 109.575C209.837 106.166 220.278 104.462 231.712 104.462C239.596 104.462 247.444 105.385 255.256 107.232C263.069 109.078 270.207 112.132 276.67 116.394C283.133 120.584 288.317 126.301 292.224 133.546C296.201 140.79 298.19 149.845 298.19 160.712V270.229H261.116V247.75H259.837C257.494 252.296 254.191 256.557 249.93 260.534C245.739 264.44 240.448 267.601 234.056 270.016C227.735 272.359 220.313 273.531 211.79 273.531ZM221.805 245.193C229.546 245.193 236.258 243.666 241.94 240.612C247.621 237.487 251.989 233.368 255.043 228.254C258.168 223.141 259.731 217.565 259.731 211.528V192.246C258.523 193.24 256.464 194.163 253.552 195.016C250.711 195.868 247.515 196.614 243.964 197.253C240.413 197.892 236.897 198.46 233.417 198.957C229.937 199.455 226.918 199.881 224.361 200.236C218.609 201.017 213.459 202.296 208.914 204.071C204.368 205.847 200.782 208.332 198.154 211.528C195.526 214.653 194.212 218.702 194.212 223.673C194.212 230.776 196.805 236.138 201.989 239.76C207.174 243.382 213.779 245.193 221.805 245.193ZM326.672 270.229V52.0469H365.238V133.652H366.836C368.824 129.675 371.63 125.449 375.252 120.974C378.874 116.429 383.775 112.558 389.954 109.362C396.133 106.095 404.016 104.462 413.604 104.462C426.246 104.462 437.645 107.693 447.802 114.156C458.029 120.548 466.126 130.03 472.092 142.601C478.128 155.101 481.147 170.442 481.147 188.624C481.147 206.592 478.199 221.862 472.305 234.433C466.41 247.004 458.384 256.592 448.228 263.198C438.072 269.803 426.566 273.105 413.711 273.105C404.336 273.105 396.559 271.543 390.38 268.418C384.201 265.293 379.229 261.528 375.465 257.125C371.772 252.651 368.895 248.425 366.836 244.448H364.599V270.229H326.672ZM364.492 188.411C364.492 198.993 365.984 208.261 368.967 216.216C372.02 224.171 376.388 230.385 382.07 234.859C387.823 239.263 394.783 241.465 402.951 241.465C411.474 241.465 418.611 239.192 424.364 234.646C430.117 230.03 434.449 223.744 437.361 215.79C440.344 207.764 441.836 198.638 441.836 188.411C441.836 178.254 440.38 169.234 437.468 161.351C434.556 153.467 430.224 147.288 424.471 142.814C418.718 138.34 411.545 136.102 402.951 136.102C394.712 136.102 387.717 138.269 381.964 142.601C376.211 146.933 371.843 153.006 368.86 160.818C365.948 168.631 364.492 177.828 364.492 188.411ZM501.933 270.229V106.592H539.326V133.865H541.031C544.014 124.419 549.127 117.139 556.372 112.026C563.687 106.841 572.032 104.249 581.407 104.249C583.538 104.249 585.917 104.355 588.545 104.568C591.244 104.71 593.481 104.959 595.257 105.314V140.79C593.623 140.222 591.031 139.724 587.48 139.298C584 138.801 580.626 138.553 577.359 138.553C570.328 138.553 564.007 140.08 558.396 143.134C552.856 146.117 548.488 150.271 545.292 155.598C542.096 160.925 540.498 167.068 540.498 174.028V270.229H501.933ZM608.878 270.229V106.592H647.443V270.229H608.878ZM628.267 83.368C622.159 83.368 616.904 81.3438 612.5 77.2955C608.097 73.1762 605.895 68.2401 605.895 62.4873C605.895 56.6634 608.097 51.7273 612.5 47.679C616.904 43.5597 622.159 41.5001 628.267 41.5001C634.446 41.5001 639.702 43.5597 644.034 47.679C648.438 51.7273 650.639 56.6634 650.639 62.4873C650.639 68.2401 648.438 73.1762 644.034 77.2955C639.702 81.3438 634.446 83.368 628.267 83.368ZM735.825 273.105C722.97 273.105 711.464 269.803 701.308 263.198C691.152 256.592 683.126 247.004 677.231 234.433C671.337 221.862 668.389 206.592 668.389 188.624C668.389 170.442 671.372 155.101 677.338 142.601C683.375 130.03 691.507 120.548 701.734 114.156C711.962 107.693 723.361 104.462 735.932 104.462C745.52 104.462 753.403 106.095 759.582 109.362C765.761 112.558 770.662 116.429 774.284 120.974C777.906 125.449 780.712 129.675 782.7 133.652H784.298V52.0469H822.97V270.229H785.044V244.448H782.7C780.712 248.425 777.835 252.651 774.071 257.125C770.307 261.528 765.335 265.293 759.156 268.418C752.977 271.543 745.2 273.105 735.825 273.105ZM746.585 241.465C754.753 241.465 761.713 239.263 767.466 234.859C773.219 230.385 777.587 224.171 780.569 216.216C783.552 208.261 785.044 198.993 785.044 188.411C785.044 177.828 783.552 168.631 780.569 160.818C777.658 153.006 773.325 146.933 767.572 142.601C761.891 138.269 754.895 136.102 746.585 136.102C737.991 136.102 730.818 138.34 725.065 142.814C719.312 147.288 714.98 153.467 712.068 161.351C709.156 169.234 707.7 178.254 707.7 188.411C707.7 198.638 709.156 207.764 712.068 215.79C715.051 223.744 719.419 230.03 725.172 234.646C730.996 239.192 738.133 241.465 746.585 241.465Z" fill="white"/>
</g>
<rect x="855.796" y="69.6573" width="63.1429" height="63.1429" rx="31.5714" stroke="white" stroke-width="4.85714"/>
<path d="M874.241 120.229V80.956H888.968C891.985 80.956 894.517 81.4802 896.562 82.5285C898.62 83.5768 900.174 85.0469 901.222 86.939C902.283 88.8182 902.813 91.0107 902.813 93.5164C902.813 96.0349 902.277 98.2209 901.203 100.075C900.142 101.916 898.576 103.341 896.505 104.351C894.433 105.348 891.889 105.847 888.872 105.847H878.383V99.9404H887.914C889.678 99.9404 891.122 99.6975 892.247 99.2117C893.372 98.7131 894.203 97.9908 894.74 97.0448C895.29 96.086 895.565 94.9099 895.565 93.5164C895.565 92.1229 895.29 90.934 894.74 89.9496C894.191 88.9525 893.353 88.1982 892.228 87.6869C891.103 87.1627 889.652 86.9006 887.875 86.9006H881.355V120.229H874.241ZM894.529 102.433L904.252 120.229H896.313L886.763 102.433H894.529Z" fill="white"/>
<defs>
<filter id="filter0_d_277_1820" x="-8.01086e-05" y="9.53674e-07" width="878.303" height="342.698" filterUnits="userSpaceOnUse" color-interpolation-filters="sRGB">
<feFlood flood-opacity="0" result="BackgroundImageFix"/>
<feColorMatrix in="SourceAlpha" type="matrix" values="0 0 0 0 0 0 0 0 0 0 0 0 0 0 0 0 0 0 127 0" result="hardAlpha"/>
<feOffset dy="13.8333"/>
<feGaussianBlur stdDeviation="27.6667"/>
<feComposite in2="hardAlpha" operator="out"/>
<feColorMatrix type="matrix" values="0 0 0 0 0 0 0 0 0 0 0 0 0 0 0 0 0 0 0.05 0"/>
<feBlend mode="normal" in2="BackgroundImageFix" result="effect1_dropShadow_277_1820"/>
<feBlend mode="normal" in="SourceGraphic" in2="effect1_dropShadow_277_1820" result="shape"/>
</filter>
</defs>
</svg>
