<svg width="437" height="164" viewBox="0 0 437 164" fill="none" xmlns="http://www.w3.org/2000/svg">
<path d="M46.3749 57.1081V70.5779H2.69398V57.1081H46.3749ZM13.6142 131V50.1326C13.6142 45.1615 14.6405 41.0244 16.693 37.721C18.7777 34.4177 21.5679 31.9482 25.0636 30.3126C28.5594 28.677 32.44 27.8592 36.7054 27.8592C39.7201 27.8592 42.3981 28.0997 44.7393 28.5808C47.0805 29.0618 48.8123 29.4948 49.9348 29.8796L46.4711 43.3495C45.7335 43.125 44.8034 42.9005 43.6809 42.676C42.5584 42.4195 41.3077 42.2912 39.9286 42.2912C36.6894 42.2912 34.3963 43.0769 33.0493 44.6484C31.7344 46.1878 31.077 48.4007 31.077 51.2871V131H13.6142ZM78.7628 132.491C74.0804 132.491 69.863 131.657 66.1107 129.99C62.3904 128.29 59.4399 125.788 57.259 122.485C55.1103 119.182 54.0359 115.109 54.0359 110.266C54.0359 106.097 54.8056 102.649 56.345 99.923C57.8844 97.197 59.9851 95.0162 62.647 93.3805C65.3089 91.7449 68.3076 90.5102 71.643 89.6763C75.0104 88.8104 78.4901 88.185 82.0821 87.8001C86.4117 87.3512 89.9235 86.9503 92.6175 86.5975C95.3115 86.2126 97.2678 85.6353 98.4865 84.8656C99.7373 84.0639 100.363 82.8291 100.363 81.1614V80.8728C100.363 77.2487 99.2883 74.4425 97.1395 72.4541C94.9908 70.4657 91.8959 69.4715 87.8549 69.4715C83.5895 69.4715 80.206 70.4015 77.7044 72.2617C75.2349 74.1218 73.5672 76.3187 72.7013 78.8523L56.4412 76.5432C57.7241 72.0532 59.8408 68.3009 62.7913 65.2862C65.7419 62.2394 69.3499 59.9624 73.6153 58.455C77.8808 56.9156 82.5953 56.1459 87.7587 56.1459C91.3186 56.1459 94.8625 56.5628 98.3903 57.3967C101.918 58.2305 105.141 59.6096 108.06 61.5339C110.978 63.4261 113.319 66.0078 115.083 69.2791C116.879 72.5503 117.777 76.6394 117.777 81.5463V131H101.036V120.849H100.459C99.4005 122.902 97.9092 124.826 95.985 126.622C94.0928 128.386 91.7035 129.813 88.8171 130.904C85.9627 131.962 82.6113 132.491 78.7628 132.491ZM83.2848 119.695C86.7805 119.695 89.8113 119.005 92.377 117.626C94.9427 116.215 96.915 114.355 98.2941 112.046C99.7052 109.737 100.411 107.219 100.411 104.493V95.7859C99.8656 96.2349 98.9355 96.6518 97.6206 97.0366C96.3377 97.4215 94.8945 97.7582 93.291 98.0469C91.6874 98.3355 90.0999 98.5921 88.5284 98.8166C86.9569 99.0411 85.5939 99.2335 84.4393 99.3939C81.8416 99.7467 79.5164 100.324 77.4639 101.126C75.4113 101.927 73.7917 103.05 72.6051 104.493C71.4185 105.904 70.8251 107.732 70.8251 109.977C70.8251 113.184 71.9957 115.606 74.3369 117.241C76.6781 118.877 79.6607 119.695 83.2848 119.695ZM136.058 131V32.4774H153.473V69.3272H154.194C155.092 67.5312 156.359 65.6229 157.995 63.6025C159.63 61.5499 161.843 59.802 164.633 58.3588C167.423 56.8836 170.983 56.1459 175.313 56.1459C181.022 56.1459 186.169 57.6052 190.755 60.5236C195.373 63.41 199.03 67.6915 201.724 73.3681C204.45 79.0127 205.813 85.94 205.813 94.1502C205.813 102.264 204.482 109.16 201.82 114.836C199.158 120.513 195.534 124.842 190.948 127.825C186.361 130.808 181.166 132.299 175.361 132.299C171.128 132.299 167.616 131.593 164.826 130.182C162.036 128.771 159.791 127.071 158.091 125.083C156.423 123.062 155.124 121.154 154.194 119.358H153.184V131H136.058ZM153.136 94.054C153.136 98.8326 153.809 103.018 155.156 106.61C156.535 110.202 158.508 113.008 161.073 115.029C163.671 117.017 166.814 118.011 170.502 118.011C174.351 118.011 177.574 116.985 180.172 114.932C182.77 112.848 184.726 110.009 186.041 106.417C187.388 102.793 188.061 98.6723 188.061 94.054C188.061 89.4679 187.404 85.3948 186.089 81.8349C184.774 78.275 182.818 75.4848 180.22 73.4643C177.622 71.4439 174.383 70.4336 170.502 70.4336C166.782 70.4336 163.623 71.4118 161.025 73.3681C158.428 75.3245 156.455 78.0666 155.108 81.5944C153.793 85.1222 153.136 89.2754 153.136 94.054ZM220.617 131V57.1081H237.503V69.4234H238.273C239.62 65.1579 241.929 61.8706 245.2 59.5615C248.503 57.2203 252.272 56.0497 256.505 56.0497C257.467 56.0497 258.542 56.0978 259.728 56.194C260.947 56.2582 261.957 56.3704 262.759 56.5308V72.5503C262.021 72.2937 260.851 72.0692 259.247 71.8768C257.676 71.6523 256.152 71.5401 254.677 71.5401C251.502 71.5401 248.648 72.2296 246.114 73.6087C243.613 74.9557 241.64 76.8318 240.197 79.2372C238.754 81.6425 238.032 84.4166 238.032 87.5596V131H220.617ZM274.329 131V57.1081H291.743V131H274.329ZM283.084 46.6208C280.326 46.6208 277.953 45.7068 275.964 43.8787C273.976 42.0186 272.982 39.7896 272.982 37.1919C272.982 34.562 273.976 32.3331 275.964 30.505C277.953 28.6449 280.326 27.7148 283.084 27.7148C285.874 27.7148 288.248 28.6449 290.204 30.505C292.192 32.3331 293.186 34.562 293.186 37.1919C293.186 39.7896 292.192 42.0186 290.204 43.8787C288.248 45.7068 285.874 46.6208 283.084 46.6208ZM337.072 132.299C331.267 132.299 326.071 130.808 321.485 127.825C316.899 124.842 313.275 120.513 310.613 114.836C307.951 109.16 306.62 102.264 306.62 94.1502C306.62 85.94 307.967 79.0127 310.661 73.3681C313.387 67.6915 317.059 63.41 321.678 60.5236C326.296 57.6052 331.443 56.1459 337.12 56.1459C341.45 56.1459 345.009 56.8836 347.8 58.3588C350.59 59.802 352.803 61.5499 354.438 63.6025C356.074 65.6229 357.341 67.5312 358.239 69.3272H358.96V32.4774H376.423V131H359.297V119.358H358.239C357.341 121.154 356.042 123.062 354.342 125.083C352.642 127.071 350.397 128.771 347.607 130.182C344.817 131.593 341.305 132.299 337.072 132.299ZM341.931 118.011C345.619 118.011 348.762 117.017 351.36 115.029C353.957 113.008 355.93 110.202 357.277 106.61C358.624 103.018 359.297 98.8326 359.297 94.054C359.297 89.2754 358.624 85.1222 357.277 81.5944C355.962 78.0666 354.005 75.3245 351.408 73.3681C348.842 71.4118 345.683 70.4336 341.931 70.4336C338.05 70.4336 334.811 71.4439 332.213 73.4643C329.615 75.4848 327.659 78.275 326.344 81.8349C325.029 85.3948 324.372 89.4679 324.372 94.054C324.372 98.6723 325.029 102.793 326.344 106.417C327.691 110.009 329.663 112.848 332.261 114.932C334.891 116.985 338.114 118.011 341.931 118.011Z" fill="#151819"/>
<rect x="399.194" y="32" width="35.8059" height="35.8059" rx="17.903" stroke="#151819" stroke-width="4"/>
<path d="M409.239 60.903V39.1906H417.381C419.049 39.1906 420.449 39.4804 421.58 40.06C422.718 40.6395 423.576 41.4523 424.156 42.4984C424.742 43.5373 425.036 44.7495 425.036 46.1348C425.036 47.5271 424.739 48.7357 424.145 49.7606C423.559 50.7783 422.693 51.5664 421.548 52.1247C420.403 52.676 418.996 52.9517 417.328 52.9517H411.529V49.6863H416.798C417.774 49.6863 418.572 49.552 419.194 49.2835C419.816 49.0078 420.276 48.6085 420.572 48.0855C420.876 47.5554 421.028 46.9052 421.028 46.1348C421.028 45.3644 420.876 44.7071 420.572 44.1628C420.269 43.6116 419.806 43.1946 419.184 42.9118C418.562 42.6221 417.759 42.4772 416.777 42.4772H413.172V60.903H409.239ZM420.456 51.0646L425.831 60.903H421.442L416.162 51.0646H420.456Z" fill="#151819"/>
</svg>
